<svg width="24" height="24" viewBox="0 0 24 24" fill="none" xmlns="http://www.w3.org/2000/svg">
<path fill-rule="evenodd" clip-rule="evenodd" d="M7 2C4.23858 2 2 4.23858 2 7V17C2 19.7614 4.23858 22 7 22H17C19.7614 22 22 19.7614 22 17V7C22 4.23858 19.7614 2 17 2H7ZM9.85156 11.7139H6.26758V15H5.3252V7.89062H6.26758V10.9473H9.85156V7.89062H10.7891V15H9.85156V11.7139ZM16.1843 15.0111C15.9525 15.0688 15.7051 15.0977 15.442 15.0977C15.0221 15.0977 14.6363 15.0195 14.2848 14.8633C13.9365 14.707 13.6337 14.4808 13.3766 14.1846C13.1227 13.8883 12.9257 13.5286 12.7857 13.1055C12.6458 12.6823 12.5758 12.2038 12.5758 11.6699V11.2207C12.5758 10.6868 12.6441 10.21 12.7809 9.79004C12.9208 9.36686 13.1178 9.00716 13.3717 8.71094C13.6256 8.41146 13.9267 8.18359 14.275 8.02734C14.6266 7.87109 15.0123 7.79297 15.4322 7.79297C15.8652 7.79297 16.2574 7.87109 16.609 8.02734C16.9605 8.18359 17.2617 8.41146 17.5123 8.71094C17.763 9.00716 17.955 9.36686 18.0885 9.79004C18.2252 10.21 18.2936 10.6868 18.2936 11.2207V11.6699C18.2936 12.2038 18.2268 12.6823 18.0934 13.1055C17.9599 13.5286 17.7678 13.8883 17.5172 14.1846C17.378 14.3491 17.2232 14.492 17.0528 14.6134L18.318 15.6152L17.6832 16.2012L16.1843 15.0111ZM17.3609 11.2109V11.6699C17.3609 12.0964 17.3186 12.474 17.234 12.8027C17.1493 13.1283 17.024 13.4033 16.858 13.6279C16.6952 13.8493 16.4951 14.0169 16.2574 14.1309C16.0198 14.2448 15.748 14.3018 15.442 14.3018C15.1523 14.3018 14.8886 14.2448 14.651 14.1309C14.4133 14.0169 14.2083 13.8493 14.0357 13.6279C13.8665 13.4033 13.7363 13.1283 13.6451 12.8027C13.554 12.474 13.5084 12.0964 13.5084 11.6699V11.2109C13.5084 10.7878 13.554 10.4134 13.6451 10.0879C13.7363 9.76237 13.8665 9.48893 14.0357 9.26758C14.205 9.04622 14.4068 8.87858 14.6412 8.76465C14.8788 8.65072 15.1425 8.59375 15.4322 8.59375C15.7382 8.59375 16.01 8.65072 16.2477 8.76465C16.4853 8.87858 16.6871 9.04622 16.8531 9.26758C17.0191 9.48893 17.1445 9.76237 17.2291 10.0879C17.317 10.4134 17.3609 10.7878 17.3609 11.2109Z" fill="#BA3B46"/>
</svg>
