<svg width="18" height="19" viewBox="0 0 18 19" fill="none" xmlns="http://www.w3.org/2000/svg">
<path d="M12.1425 2H5.8575C3.1275 2 1.5 3.6275 1.5 6.3575V12.635C1.5 15.3725 3.1275 17 5.8575 17H12.135C14.865 17 16.4925 15.3725 16.4925 12.6425V6.3575C16.5 3.6275 14.8725 2 12.1425 2ZM5.7525 4.625C5.7525 4.3175 6.0075 4.0625 6.315 4.0625C6.6225 4.0625 6.8775 4.3175 6.8775 4.625V7.55C6.8775 7.8575 6.6225 8.1125 6.315 8.1125C6.0075 8.1125 5.7525 7.8575 5.7525 7.55V4.625ZM7.22708 12.7834C7.02795 12.8829 6.8775 13.0732 6.8775 13.2958V14.375C6.8775 14.6825 6.6225 14.9375 6.315 14.9375C6.0075 14.9375 5.7525 14.6825 5.7525 14.375V13.2958C5.7525 13.0732 5.60201 12.8829 5.40299 12.7832C4.73305 12.4476 4.275 11.7603 4.275 10.9625C4.275 9.8375 5.19 8.915 6.315 8.915C7.44 8.915 8.3625 9.83 8.3625 10.9625C8.3625 11.7604 7.89877 12.4479 7.22708 12.7834ZM12.2475 14.375C12.2475 14.6825 11.9925 14.9375 11.685 14.9375C11.3775 14.9375 11.1225 14.6825 11.1225 14.375V11.45C11.1225 11.1425 11.3775 10.8875 11.685 10.8875C11.9925 10.8875 12.2475 11.1425 12.2475 11.45V14.375ZM11.685 10.0775C10.56 10.0775 9.6375 9.1625 9.6375 8.03C9.6375 7.23211 10.1012 6.54463 10.7729 6.20911C10.9721 6.10964 11.1225 5.91931 11.1225 5.69671V4.625C11.1225 4.3175 11.3775 4.0625 11.685 4.0625C11.9925 4.0625 12.2475 4.3175 12.2475 4.625V5.70421C12.2475 5.92681 12.398 6.11709 12.597 6.21678C13.2669 6.55236 13.725 7.23974 13.725 8.0375C13.725 9.1625 12.81 10.0775 11.685 10.0775Z" fill="#BA3B46"/>
</svg>
