<svg width="18" height="18" viewBox="0 0 18 18" fill="none" xmlns="http://www.w3.org/2000/svg">
<path d="M12.7207 4.62744C14.2207 5.66994 15.2557 7.32744 15.4657 9.23994" stroke="#BA3B46" stroke-width="1.5" stroke-linecap="round" stroke-linejoin="round"/>
<path d="M2.61719 9.27754C2.81219 7.37254 3.83219 5.71504 5.31719 4.66504" stroke="#BA3B46" stroke-width="1.5" stroke-linecap="round" stroke-linejoin="round"/>
<path d="M6.14258 15.7051C7.01258 16.1476 8.00258 16.3951 9.04508 16.3951C10.0501 16.3951 10.9951 16.1701 11.8426 15.7576" stroke="#BA3B46" stroke-width="1.5" stroke-linecap="round" stroke-linejoin="round"/>
<path d="M6.96094 3.68998C6.96094 4.83748 7.89094 5.77498 9.04594 5.77498C10.2009 5.77498 11.1309 4.84498 11.1309 3.68998C11.1309 2.53498 10.2009 1.60498 9.04594 1.60498" stroke="#BA3B46" stroke-width="1.5" stroke-linecap="round" stroke-linejoin="round"/>
<path d="M3.62211 14.94C4.77362 14.94 5.70711 14.0065 5.70711 12.855C5.70711 11.7035 4.77362 10.77 3.62211 10.77C2.4706 10.77 1.53711 11.7035 1.53711 12.855C1.53711 14.0065 2.4706 14.94 3.62211 14.94Z" stroke="#BA3B46" stroke-width="1.5" stroke-linecap="round" stroke-linejoin="round"/>
<path d="M16.4552 12.855C16.4552 11.7075 15.5252 10.77 14.3702 10.77C13.2152 10.77 12.2852 11.7 12.2852 12.855C12.2852 14.01 13.2152 14.94 14.3702 14.94" stroke="#BA3B46" stroke-width="1.5" stroke-linecap="round" stroke-linejoin="round"/>
</svg>
