<svg width="36" height="37" viewBox="0 0 36 37" fill="none" xmlns="http://www.w3.org/2000/svg">
<path d="M26.235 14.5323L8.4 25.2873C7.35 25.9173 6 25.1673 6 23.9373V11.9373C6 6.70228 11.655 3.43228 16.2 6.04228L23.085 10.0023L26.22 11.8023C27.255 12.4173 27.27 13.9173 26.235 14.5323Z" fill="#BA3B46"/>
<path d="M27.1352 23.3223L21.0602 26.8323L15.0002 30.3273C12.8252 31.5723 10.3652 31.3173 8.5802 30.0573C7.7102 29.4573 7.8152 28.1223 8.7302 27.5823L27.7952 16.1523C28.6952 15.6123 29.8802 16.1223 30.0452 17.1573C30.4202 19.4823 29.4602 21.9873 27.1352 23.3223Z" fill="#BA3B46"/>
</svg>
